<?xml version="1.0" encoding="UTF-8" standalone="no"?>
<svg width="267px" height="71px" viewBox="0 0 267 71" version="1.1" xmlns="http://www.w3.org/2000/svg" xmlns:xlink="http://www.w3.org/1999/xlink">
    <!-- Generator: Sketch 3.8.3 (29802) - http://www.bohemiancoding.com/sketch -->
    <title>Page 1</title>
    <desc>Created with Sketch.</desc>
    <defs>
        <polygon id="path-1" points="0 70.5443 266.254 70.5443 266.254 0.0003 0 0.0003"></polygon>
    </defs>
    <g id="Page-1" stroke="none" stroke-width="1" fill="none" fill-rule="evenodd">
        <g>
            <path d="M113.9987,32.5825 L113.9987,41.9485 C113.9987,48.3465 115.9697,49.3945 121.5757,49.3945 C127.1817,49.3945 129.1527,48.3465 129.1527,41.9485 L129.1527,32.5825 C129.1527,25.5915 127.1817,24.4775 121.5757,24.4775 C115.9697,24.4775 113.9987,25.5915 113.9987,32.5825 L113.9987,32.5825 Z M111.4767,69.0565 C117.2157,65.0995 123.3487,59.6245 125.9217,54.6125 C123.4147,55.2715 121.7737,55.4035 119.7287,55.4035 C112.0787,55.4035 107.1307,51.3145 107.1307,41.9485 L107.1307,32.5825 C107.1307,22.0955 111.1557,17.8745 121.5757,17.8745 C131.9977,17.8745 136.0207,22.0955 136.0207,32.5825 L136.0207,41.9485 C136.0207,54.1505 129.2277,63.7805 120.7187,69.5185 L111.6087,69.5185 L111.4767,69.0565 L111.4767,69.0565 Z" id="Fill-1" fill="#555E5E"></path>
            <path d="M146.664,32.5825 L146.664,41.9485 C146.664,48.3465 148.635,49.3945 154.241,49.3945 C159.847,49.3945 161.818,48.3465 161.818,41.9485 L161.818,32.5825 C161.818,25.5915 159.847,24.4775 154.241,24.4775 C148.635,24.4775 146.664,25.5915 146.664,32.5825 L146.664,32.5825 Z M143.541,69.0565 C149.279,65.0995 155.413,59.6245 157.986,54.6125 C155.479,55.2715 154.439,55.4035 152.394,55.4035 C144.744,55.4035 139.796,51.3145 139.796,41.9485 L139.796,32.5825 C139.796,22.0955 143.821,17.8745 154.241,17.8745 C164.663,17.8745 168.686,22.0955 168.686,32.5825 L168.686,41.9485 C168.686,54.1505 161.893,63.7805 153.384,69.5185 L143.673,69.5185 L143.541,69.0565 Z" id="Fill-3" fill="#555E5E"></path>
            <path d="M174.8548,69.6682 L183.6638,44.7142 L173.6128,44.7142 L173.6128,39.0312 L217.7088,39.0312 L217.7088,44.7142 L191.2138,44.7142 L184.4798,64.0422 L207.9948,64.0422 C208.3798,64.0422 208.7548,63.8302 209.0508,63.4452 C209.3598,63.1292 209.4678,62.6972 209.3278,62.2602 L206.0518,51.6302 L212.5188,51.6302 L215.9808,65.0652 C216.2158,66.1862 215.9638,67.2602 215.2278,68.2402 C214.4728,69.1702 213.4628,69.6682 212.3178,69.6682 L174.8548,69.6682 Z" id="Fill-5" fill="#555E5E"></path>
            <mask id="mask-2" fill="white">
                <use xlink:href="#path-1"></use>
            </mask>
            <g id="Clip-8"></g>
            <polygon id="Fill-7" fill="#555E5E" mask="url(#mask-2)" points="175.516 25.6313 215.806 25.6313 215.806 19.9483 175.516 19.9483"></polygon>
            <polygon id="Fill-9" fill="#555E5E" mask="url(#mask-2)" points="224.1857 25.631 224.1847 19.948 240.4947 19.948 240.4947 15.916 249.7647 15.916 249.7647 19.948 266.0297 19.948 266.0297 25.631"></polygon>
            <path d="M251.6611,69.5255 L251.6611,64.2735 L258.2381,64.2735 C259.1661,64.2735 259.9501,63.3615 259.9501,62.2835 L259.9501,39.0615 L255.8501,39.0615 L258.7941,47.1495 L252.4401,47.1495 L249.3291,39.0615 L240.8651,39.0615 L237.7051,47.2835 L231.3491,47.2835 L234.3411,39.0615 L229.8861,39.0615 L229.8861,69.5255 L223.6491,69.5255 L223.6491,33.1615 L233.7471,33.1615 L231.0501,28.1995 L237.3721,28.1995 L240.1201,33.1615 L250.2861,33.1615 L253.0871,28.1995 L259.4111,28.1995 L256.7121,33.1615 L266.2541,33.1615 L266.2541,64.4115 C266.2541,67.1835 264.4211,69.5255 262.2511,69.5255 L251.6611,69.5255 Z" id="Fill-10" fill="#555E5E" mask="url(#mask-2)"></path>
            <path d="M242.2697,57.6659 L245.5547,57.6659 C246.8727,57.6659 247.9457,56.5929 247.9457,55.2739 L247.9457,50.5349 L242.2697,50.5349 L242.2697,57.6659 Z M236.5227,62.4079 L236.5227,45.7919 L253.6927,45.7919 L253.6927,58.3439 C253.6927,60.5849 251.8697,62.4079 249.6287,62.4079 L236.5227,62.4079 Z" id="Fill-11" fill="#555E5E" mask="url(#mask-2)"></path>
            <path d="M49.9316,23.2905 C43.4556,23.2905 40.4846,25.2715 40.4846,33.3465 L40.4846,44.1655 C40.4846,51.5555 43.4556,53.4605 49.9316,53.4605 C56.4076,53.4605 59.3786,51.5555 59.3786,44.1655 L59.3786,33.3465 C59.3786,25.2715 56.4076,23.2905 49.9316,23.2905" id="Fill-12" fill="#1CACE4" mask="url(#mask-2)"></path>
            <path d="M76.8477,18.4383 C74.6657,7.9363 66.3127,0.0003 50.2357,0.0003 C34.2187,0.0003 24.7077,7.9303 22.5127,18.4173 C7.0837,19.0603 -0.0003,31.9313 -0.0003,45.9103 C-0.0003,59.7473 10.8927,69.6743 26.1027,70.5283 L36.2357,70.5443 L45.4607,70.4983 C49.7887,66.8183 53.6477,62.6863 55.6467,58.7933 C52.7507,59.5553 50.1607,59.7083 47.7977,59.7083 C38.9607,59.7083 33.2467,54.9843 33.2467,44.1653 L33.2467,33.3473 C33.2467,21.2333 37.8947,16.3573 49.9317,16.3573 C61.9697,16.3573 66.6167,21.2333 66.6167,33.3473 L66.6167,44.1653 C66.6167,54.8603 62.0977,63.8413 55.6247,70.4483 L58.4857,70.4343 L75.5787,70.3823 C89.9607,68.7963 99.8637,59.2173 99.8637,45.9103 C99.8637,32.0913 92.0267,19.3213 76.8477,18.4383" id="Fill-13" fill="#1CACE4" mask="url(#mask-2)"></path>
        </g>
    </g>
</svg>