<?xml version="1.0" encoding="UTF-8" standalone="no"?>
<svg width="15px" height="23px" viewBox="0 0 15 23" version="1.1" xmlns="http://www.w3.org/2000/svg" xmlns:xlink="http://www.w3.org/1999/xlink" xmlns:sketch="http://www.bohemiancoding.com/sketch/ns">
    <!-- Generator: Sketch 3.4.2 (15857) - http://www.bohemiancoding.com/sketch -->
    <title>Phone</title>
    <desc>Created with Sketch.</desc>
    <defs></defs>
    <g id="Page-1" stroke="none" stroke-width="1" fill="none" fill-rule="evenodd" sketch:type="MSPage">
        <g id="登陆" sketch:type="MSArtboardGroup" transform="translate(-1092.000000, -392.000000)" fill="#C7CED5">
            <g id="Phone" sketch:type="MSLayerGroup" transform="translate(1092.812500, 392.000000)">
                <path d="M2.00585866,0 C0.898053512,0 0,0.901627257 0,2.00086422 L0,20.9991358 C0,22.1041826 0.897060126,23 2.00585866,23 L11.9941413,23 C13.1019465,23 14,22.0983727 14,20.9991358 L14,2.00086422 C14,0.895817426 13.1029399,0 11.9941413,0 L2.00585866,0 Z M5.1875,1.5 C5.1875,1.22385763 5.40255737,1 5.67797852,1 L8.69702148,1 C8.96790529,1 9.1875,1.23193359 9.1875,1.5 C9.1875,1.77614237 8.97244263,2 8.69702148,2 L5.67797852,2 C5.40709471,2 5.1875,1.76806641 5.1875,1.5 Z M3.6875,1.5 C3.6875,1.22385763 3.91943359,1 4.1875,1 C4.46364237,1 4.6875,1.23193359 4.6875,1.5 C4.6875,1.77614237 4.45556641,2 4.1875,2 C3.91135763,2 3.6875,1.76806641 3.6875,1.5 Z M7.1875,22.3000488 C7.73978475,22.3000488 8.1875,21.8523336 8.1875,21.3000488 C8.1875,20.7477641 7.73978475,20.3000488 7.1875,20.3000488 C6.63521525,20.3000488 6.1875,20.7477641 6.1875,21.3000488 C6.1875,21.8523336 6.63521525,22.3000488 7.1875,22.3000488 Z M3.49201702,3 C2.3918564,3 1.5,3.88711166 1.5,4.99028552 L1.5,17.5097145 C1.5,18.6089188 2.40017617,19.5 3.49201702,19.5 L10.507983,19.5 C11.6081436,19.5 12.5,18.6128883 12.5,17.5097145 L12.5,4.99028552 C12.5,3.89108118 11.5998238,3 10.507983,3 L3.49201702,3 Z" id="Rectangle-69" sketch:type="MSShapeGroup"></path>
            </g>
        </g>
    </g>
</svg>