<?xml version="1.0" encoding="UTF-8" standalone="no"?>
<svg width="21px" height="23px" viewBox="0 0 21 23" version="1.1" xmlns="http://www.w3.org/2000/svg" xmlns:xlink="http://www.w3.org/1999/xlink" xmlns:sketch="http://www.bohemiancoding.com/sketch/ns">
    <!-- Generator: Sketch 3.4.2 (15857) - http://www.bohemiancoding.com/sketch -->
    <title>Group 2</title>
    <desc>Created with Sketch.</desc>
    <defs></defs>
    <g id="Page-1" stroke="none" stroke-width="1" fill="none" fill-rule="evenodd" sketch:type="MSPage">
        <g id="登陆" sketch:type="MSArtboardGroup" transform="translate(-914.000000, -391.000000)">
            <g id="Group-2" sketch:type="MSLayerGroup" transform="translate(914.626277, 391.325928)">
                <path d="M18.702186,9.17248535 L16.2627704,9.17248535 L16.2627704,6.94857458 C16.2627704,3.27040796 13.3444163,0.277676147 9.75766226,0.277676147 C6.17090824,0.277676147 3.25255409,3.27040796 3.25255409,6.94857458 L3.25255409,9.17248535 L0.813138522,9.17248535 C0.364286058,9.17248535 0,9.54605566 0,10.0063477 C0,10.4666396 0.364286058,10.84021 0.813138522,10.84021 L17.8890475,10.84021 L17.8890475,20.8465576 L1.62627704,20.8465576 L1.62627704,13.3417969 C1.62627704,12.880671 1.26199099,12.5079346 0.813138522,12.5079346 C0.364286058,12.5079346 0,12.880671 0,13.3417969 L0,21.6804199 C0,22.1415458 0.364286058,22.5142822 0.813138522,22.5142822 L18.702186,22.5142822 C19.1518516,22.5142822 19.5153245,22.1415458 19.5153245,21.6804199 L19.5153245,10.0063477 C19.5153245,9.54605566 19.1518516,9.17248535 18.702186,9.17248535 L18.702186,9.17248535 Z M4.87883113,6.94857458 C4.87883113,4.18932422 7.06698689,1.94540076 9.75766226,1.94540076 C12.4483376,1.94540076 14.6364934,4.18932422 14.6364934,6.94857458 L14.6364934,9.17248535 L4.87883113,9.17248535 L4.87883113,6.94857458 L4.87883113,6.94857458 Z" id="Shape" fill="#C2CCD3" sketch:type="MSShapeGroup"></path>
                <path d="M13.0102163,15.8433838 C13.0102163,14.0038835 11.5514458,12.5079346 9.75766226,12.5079346 C7.96387868,12.5079346 6.50510817,14.0038835 6.50510817,15.8433838 C6.50510817,17.682884 7.96387868,19.178833 9.75766226,19.178833 C11.5514458,19.178833 13.0102163,17.682884 13.0102163,15.8433838 L13.0102163,15.8433838 Z M8.13138522,15.8433838 C8.13138522,14.9236337 8.86077047,14.1756592 9.75766226,14.1756592 C10.654554,14.1756592 11.3839393,14.9236337 11.3839393,15.8433838 C11.3839393,16.7631339 10.654554,17.5111084 9.75766226,17.5111084 C8.86077047,17.5111084 8.13138522,16.7631339 8.13138522,15.8433838 L8.13138522,15.8433838 Z" id="Shape" fill="#AEB9C2" sketch:type="MSShapeGroup"></path>
            </g>
        </g>
    </g>
</svg>